<?xml version="1.0" encoding="utf-8"?>
<!DOCTYPE svg PUBLIC "-//W3C//DTD SVG 1.1//EN" "http://www.w3.org/Graphics/SVG/1.1/DTD/svg11.dtd">
<svg version="1.1" id="图形" xmlns="http://www.w3.org/2000/svg" xmlns:xlink="http://www.w3.org/1999/xlink" x="0px" y="0px" width="1537px" height="1024px" viewBox="0 0 1537 1024" enable-background="new 0 0 1537 1024" xml:space="preserve">
  <path fill="#272636" d="M584.355 754.786c-52.017 0-94.185-42.158-94.185-94.185 0-29.25 13.342-55.408 34.287-72.671l300.817-300.818-298.895-298.895c-22.032-17.245-36.198-44.051-36.198-74.196 0-52.015 42.158-94.176 94.185-94.176 26.629 0 50.682 11.084 67.822 28.867l0.103-0.103 376.826 376.826-0.269 0.269c14.313 16.528 22.986 38.048 22.986 61.616 0 27.999-12.221 53.116-31.628 70.383l-365.471 365.471c-17.258 19.395-42.382 31.629-70.389 31.629h0.001zM584.355 754.786z" transform="translate(0, 812) scale(1, -1)"/>
</svg>
